<?xml version="1.0" encoding="UTF-8" standalone="no"?>
<svg
   xmlns="http://www.w3.org/2000/svg"
   viewBox="0 0 88 88"
   version="1.1"
   id="svg2"
   width="88"
   height="88">
  <path
     d="M 1.9401069,0.02218109 A 2.1448525,2.1448815 0 0 0 0.6667281,3.7083271 L 40.979221,44.021367 0.6667281,84.300893 a 2.1448525,2.1448815 0 1 0 3.0158974,3.04945 L 43.995119,47.037305 84.307611,87.350343 a 2.1448525,2.1448815 0 1 0 3.015898,-3.04945 L 47.011015,44.021367 87.323509,3.7083271 A 2.1448525,2.1448815 0 0 0 85.54748,0.02218109 2.1448525,2.1448815 0 0 0 84.307611,0.65887909 L 43.995119,40.971918 3.6826255,0.65887909 a 2.1448525,2.1448815 0 0 0 -1.7425186,-0.636698 z"
     id="path4" />
</svg>
