<?xml version="1.0" encoding="UTF-8" standalone="no"?>
<svg
   xmlns="http://www.w3.org/2000/svg"
   height="88"
   width="88"
   version="1.1"
   id="svg2"
   viewBox="0 0 88 88">
  <g
     id="g4"
     transform="matrix(0.99999026,0,0,0.99950846,-5.9993815,-957.84785)">
    <path
       id="path6"
       transform="translate(0,952.36218)"
       d="M 49.78125,5.96875 A 2.0002,2.0002 0 0 0 48,8 L 48,78.15625 29.40625,59.5625 a 2.0002,2.0002 0 0 0 -1.625,-0.59375 2.0002,2.0002 0 0 0 -1.1875,3.4375 l 22,22 a 2.0002,2.0002 0 0 0 2.8125,0 l 22,-22 A 2.0002,2.0002 0 1 0 70.59375,59.5625 L 52,78.15625 52,8 A 2.0002,2.0002 0 0 0 49.78125,5.96875 Z m -32,70 A 2.0002,2.0002 0 0 0 16,78 l 0,14 a 2.0002,2.0002 0 0 0 2,2 l 64,0 a 2.0002,2.0002 0 0 0 2,-2 l 0,-14 a 2.0002,2.0002 0 1 0 -4,0 l 0,12 -60,0 0,-12 a 2.0002,2.0002 0 0 0 -2.21875,-2.03125 z" />
  </g>
</svg>
