<?xml version="1.0" encoding="UTF-8" standalone="no"?>
<svg
   xmlns="http://www.w3.org/2000/svg"
   height="88"
   width="88"
   id="svg2"
   version="1.1"
   viewBox="0 0 88 88">
  <g
     id="g4"
     transform="matrix(0.99858347,0,0,0.99990807,-5.8952912,-958.27004)">
    <path
       id="path6"
       d="M 7.8125,26 A 2.0021961,2.0021961 0 1 0 8,30 l 84,0 a 2.0002,2.0002 0 1 0 0,-4 L 8,26 a 2.0002,2.0002 0 0 0 -0.1875,0 z m 0,22 A 2.0021961,2.0021961 0 1 0 8,52 l 84,0 a 2.0002,2.0002 0 1 0 0,-4 L 8,48 a 2.0002,2.0002 0 0 0 -0.1875,0 z m 0,22 A 2.0021961,2.0021961 0 1 0 8,74 l 84,0 a 2.0002,2.0002 0 1 0 0,-4 L 8,70 a 2.0002,2.0002 0 0 0 -0.1875,0 z"
       transform="translate(0,952.36218)" />
  </g>
</svg>
