<?xml version="1.0" encoding="UTF-8" standalone="no"?>
<svg
   xmlns="http://www.w3.org/2000/svg"
   height="88"
   width="88"
   id="svg2"
   viewBox="0 0 88 88"
   y="0px"
   x="0px"
   version="1.1">
  <g
     id="g4"
     transform="matrix(-1.1283498,0,0,1.1283481,100.41185,-1087.0079)">
    <path
       id="path6"
       transform="translate(0,952.36218)"
       d="m 40,11 c -15.992569,0 -29,13.00743 -29,29 0,15.9926 13.007431,29 29,29 7.281794,0 13.935267,-2.71093 19.03125,-7.15625 l 26.5625,26.5625 c 0.739036,0.7608 2.097904,0.78525 2.84375,0.03125 0.745845,-0.7541 0.737654,-2.1444 -0.03125,-2.875 L 61.875,59.03125 C 66.312418,53.937244 69,47.274551 69,40 69,24.00743 55.992569,11 40,11 Z m 0,4 C 53.830808,15 65,26.16919 65,40 65,53.8308 53.830808,65 40,65 26.169192,65 15,53.8308 15,40 15,26.16919 26.169192,15 40,15 Z" />
  </g>
</svg>
